<?xml version="1.0" standalone="no"?><!DOCTYPE svg PUBLIC "-//W3C//DTD SVG 1.1//EN" "http://www.w3.org/Graphics/SVG/1.1/DTD/svg11.dtd"><svg t="1648714322268" class="icon" viewBox="0 0 1024 1024" version="1.1" xmlns="http://www.w3.org/2000/svg" p-id="16986" xmlns:xlink="http://www.w3.org/1999/xlink" width="200" height="200"><defs><style type="text/css">@font-face { font-family: feedback-iconfont; src: url("//at.alicdn.com/t/font_1031158_u69w8yhxdu.woff2?t=1630033759944") format("woff2"), url("//at.alicdn.com/t/font_1031158_u69w8yhxdu.woff?t=1630033759944") format("woff"), url("//at.alicdn.com/t/font_1031158_u69w8yhxdu.ttf?t=1630033759944") format("truetype"); }
</style></defs><path d="M997.781109 25.573604c-62.771573-62.771573-199.939084 2.324873-306.883245 72.071065-62.771573-25.573604-130.192892-39.522842-199.939084-37.197969-16.274112 0-27.898477 13.949238-25.573604 27.898477C465.385175 104.619288 479.334414 116.243654 495.608525 116.243654c111.593907-4.649746 218.538069 37.197969 297.583753 116.243654 30.22335 30.22335 53.472081 62.771573 69.746192 95.319796-58.121827 86.020304-139.492384 183.664973-244.111673 290.609134-106.944161 106.944161-204.58883 188.314719-290.609134 244.111673-34.873096-18.598985-67.421319-41.847715-95.319796-69.746192C77.131372 637.015222 77.131372 385.92893 232.897868 232.487307c6.974619-6.974619 13.949238-13.949238 20.923858-18.598985l0 0c11.624365-9.299492 11.624365-27.898477 2.324873-39.522842-9.299492-11.624365-27.898477-11.624365-39.522842-2.324873C209.649137 176.690353 200.349645 183.664973 193.375026 192.964465c-134.842638 134.842638-165.065988 334.781722-95.319796 499.84771-69.746192 109.269034-134.842638 244.111673-72.071065 306.883245 53.472081 53.472081 172.040607 13.949238 306.883245-72.071065 165.065988 72.071065 365.005072 39.522842 497.522837-95.319796 134.842638-134.842638 165.065988-332.456849 95.319796-497.522837C1014.05522 197.614211 1053.578062 79.045684 997.781109 25.573604zM830.390248 192.964465c-25.573604-25.573604-53.472081-46.497461-83.695431-65.096446 118.568527-72.071065 190.639592-83.695431 211.56345-62.771573 23.248731 23.248731 2.324873 102.294415-62.771573 211.56345C879.212582 246.436546 855.963851 218.538069 830.390248 192.964465zM65.507007 960.172579c-20.923858-20.923858-6.974619-92.994923 62.771573-211.56345 18.598985 30.22335 39.522842 58.121827 65.096446 83.695431 25.573604 25.573604 53.472081 46.497461 83.695431 65.096446C165.476549 962.497452 88.755738 983.421309 65.507007 960.172579zM793.192278 792.781717c-109.269034 109.269034-267.360403 141.817257-404.527914 95.319796 88.345177-62.771573 181.3401-144.14213 269.685276-230.162434 86.020304-86.020304 167.390861-181.3401 230.162434-269.685276C932.684663 525.421314 902.461313 683.512683 793.192278 792.781717z" p-id="16987"></path></svg>